<?xml version="1.0" standalone="no"?>
<!DOCTYPE svg PUBLIC "-//W3C//DTD SVG 20010904//EN"
 "http://www.w3.org/TR/2001/REC-SVG-20010904/DTD/svg10.dtd">
<svg version="1.0" xmlns="http://www.w3.org/2000/svg"
 width="400.000000pt" height="400.000000pt" viewBox="0 0 400.000000 400.000000"
 preserveAspectRatio="xMidYMid meet">
<metadata>
Created by potrace 1.11, written by Peter Selinger 2001-2013
</metadata>
<g transform="translate(0.000000,400.000000) scale(0.100000,-0.100000)"
fill="#000000" stroke="none">
<path d="M2396 3935 c-3 -9 -2 -13 4 -10 5 3 8 -9 6 -30 -1 -20 1 -38 5 -41 4
-2 8 -13 8 -24 1 -11 1 -29 2 -40 0 -11 4 -22 8 -24 4 -3 6 -18 3 -34 l-4 -29
-51 14 c-29 8 -60 18 -69 24 -12 6 -18 6 -18 -1 0 -7 -6 -7 -18 -1 -10 5 -37
12 -60 15 -23 3 -47 8 -52 11 -6 3 -10 0 -10 -7 0 -9 -3 -9 -8 -2 -7 12 -18
14 -84 16 -24 1 -46 7 -50 13 -5 6 -8 4 -8 -5 0 -13 -2 -13 -9 -1 -8 12 -12
12 -25 2 -9 -8 -16 -9 -16 -4 0 10 -299 11 -316 1 -5 -3 -30 -5 -57 -4 -26 0
-47 -2 -47 -5 0 -3 -10 -5 -22 -4 -13 1 -27 0 -32 -3 -5 -3 -23 -6 -40 -8 -62
-6 -107 -13 -115 -19 -5 -3 -12 1 -14 7 -4 10 -6 10 -6 1 -1 -7 -12 -13 -24
-13 -13 0 -27 -3 -31 -7 -3 -4 -23 -8 -44 -9 -20 -1 -38 -3 -39 -4 -3 -2 -23
-5 -55 -9 -7 0 2 -14 19 -30 18 -16 29 -32 26 -35 -4 -3 -2 -6 4 -6 5 0 26
-15 45 -34 20 -19 38 -33 40 -30 3 2 10 -6 17 -19 6 -12 25 -31 41 -42 35 -24
36 -50 1 -51 -49 -2 -91 -8 -91 -14 0 -3 -10 -6 -22 -7 -33 -1 -80 -10 -98
-17 -8 -3 -33 -8 -55 -10 -22 -2 -44 -5 -48 -5 -5 -1 -5 -6 -1 -13 5 -7 3 -8
-7 -2 -15 9 -71 6 -79 -5 -3 -4 -12 -6 -20 -6 -8 1 -40 -5 -70 -11 -30 -7 -58
-10 -62 -8 -5 3 -8 1 -8 -4 0 -5 -13 -8 -30 -7 -16 1 -30 -1 -30 -5 0 -3 -10
-6 -22 -7 -44 -2 -78 -7 -78 -13 0 -3 -15 -6 -32 -8 -115 -8 -136 -19 -99 -51
12 -11 22 -23 22 -28 0 -4 9 -18 19 -30 11 -13 17 -23 12 -23 -4 0 -2 -4 3 -8
17 -12 36 -52 30 -62 -4 -6 -1 -10 5 -10 6 0 25 -30 42 -67 18 -38 35 -70 38
-73 3 -3 6 -12 8 -20 2 -8 10 -22 18 -31 8 -9 16 -26 17 -38 1 -11 7 -23 14
-25 7 -3 13 -12 13 -21 0 -8 5 -15 10 -15 6 0 9 -3 8 -7 -4 -12 26 -73 34 -73
5 0 8 -9 8 -20 0 -11 5 -20 10 -20 13 0 10 -69 -3 -77 -5 -3 -3 -9 4 -14 11
-7 10 -9 -4 -9 -10 0 -15 -5 -12 -11 4 -5 2 -22 -4 -37 -16 -41 -23 -88 -35
-229 -2 -22 -7 -51 -11 -63 -5 -16 -4 -20 5 -15 9 6 9 3 2 -11 -12 -23 -10
-173 2 -193 6 -10 5 -12 -3 -7 -8 6 -10 -2 -6 -26 4 -18 8 -50 10 -71 2 -21 7
-42 10 -47 3 -6 1 -10 -5 -10 -6 0 -8 -4 -5 -10 11 -18 28 -123 27 -167 0 -13
3 -23 7 -23 4 0 7 -15 7 -32 1 -18 4 -54 8 -80 5 -32 4 -48 -3 -48 -6 0 -10
-3 -9 -7 1 -5 -4 -26 -10 -48 -28 -94 -7 -287 37 -339 9 -10 14 -20 12 -23 -6
-9 72 -92 119 -128 36 -26 48 -44 59 -82 16 -53 15 -50 25 -78 37 -95 51 -125
58 -125 5 0 7 -3 5 -7 -2 -5 4 -21 14 -38 10 -16 23 -41 29 -53 26 -60 164
-223 234 -275 16 -12 37 -30 47 -40 11 -9 22 -17 26 -17 3 0 14 -6 22 -14 26
-22 181 -100 224 -111 4 -2 9 -4 12 -5 3 -1 10 -4 15 -5 6 -1 11 -3 13 -5 3
-3 26 -8 107 -27 41 -10 81 -22 88 -26 7 -5 12 -4 12 3 0 6 5 8 10 5 41 -25
362 -26 494 -1 25 4 130 27 146 31 42 11 96 31 101 38 3 5 8 7 10 6 2 -1 20 3
39 11 19 7 38 12 43 11 4 0 7 4 7 9 0 6 7 10 15 10 16 0 77 39 83 53 2 4 9 7
15 7 7 0 24 10 39 23 15 12 36 29 47 38 57 43 145 136 181 189 8 12 20 28 27
35 7 7 9 15 6 19 -4 3 -1 6 4 6 14 0 123 217 126 248 1 12 4 22 8 22 8 0 24
59 21 73 -1 4 3 7 9 7 5 0 7 4 4 10 -7 11 49 73 58 63 4 -3 9 2 13 11 3 9 13
16 21 16 8 0 11 5 8 10 -3 6 -2 10 3 10 12 0 82 95 82 110 0 6 5 10 12 10 6 0
9 2 6 6 -3 3 1 26 8 51 21 69 18 216 -6 283 -23 65 -25 91 -7 109 10 11 10 13
0 7 -14 -7 -18 6 -6 17 3 4 8 19 10 34 5 47 12 96 19 148 4 28 8 60 8 73 0 12
2 22 6 22 9 0 13 107 13 310 -1 168 -6 295 -13 295 -1 0 -3 7 -5 15 -1 9 -13
51 -25 95 -15 56 -22 107 -21 170 0 59 -4 92 -12 97 -9 6 -9 8 1 8 7 0 10 5 6
11 -4 7 -9 30 -11 53 -2 23 -6 48 -10 56 -3 8 -8 24 -10 35 -2 11 -6 27 -9 35
-4 8 -8 26 -10 40 -2 14 -8 26 -14 28 -5 2 -7 8 -4 13 3 6 0 17 -7 25 -7 9
-14 23 -15 32 -2 8 -7 18 -11 21 -5 3 -17 23 -26 44 -10 20 -22 37 -28 37 -6
0 -7 5 -4 10 3 6 1 10 -4 10 -6 0 -11 4 -11 10 0 10 -21 38 -57 76 -13 13 -23
28 -23 34 0 6 -4 8 -10 5 -5 -3 -10 2 -10 11 0 10 -3 15 -6 11 -3 -3 -16 5
-29 18 -12 14 -25 22 -29 18 -4 -4 -4 1 0 10 3 10 3 17 -2 15 -9 -3 -18 4 -77
57 -14 13 -27 21 -29 19 -2 -2 -17 8 -32 21 -16 14 -32 22 -36 20 -4 -3 -10 1
-13 9 -3 8 -23 22 -44 32 -21 10 -40 20 -43 23 -3 4 -18 13 -35 21 -16 8 -32
17 -35 21 -3 3 -20 11 -37 18 -18 8 -33 16 -33 20 0 4 -20 13 -45 20 -25 7
-45 17 -45 22 0 5 -9 9 -20 9 -11 0 -20 5 -20 10 0 6 -9 10 -19 10 -11 0 -23
5 -26 10 -3 6 -15 10 -26 10 -10 0 -19 5 -19 12 0 6 -3 9 -6 5 -4 -3 -23 2
-43 12 -59 30 -78 33 -85 16z"/>
</g>
</svg>
